<svg xmlns="http://www.w3.org/2000/svg"
 xmlns:xlink="http://www.w3.org/1999/xlink"
 width="49px" height="49px"  viewBox="0 0 49 49">
<path fill-rule="evenodd"  fill="#e8663c"
 d="M47.988434,27.932068 C47.988434,27.932068 47.988434,22.047302 47.988434,22.047302 C47.988434,22.047302 43.073242,21.654297 43.073242,21.654297 C42.895355,20.685425 42.644165,19.74353 42.32074,18.833862 C42.32074,18.833862 46.378754,16.037537 46.378754,16.037537 C46.378754,16.037537 43.43634,10.941895 43.43634,10.941895 C43.43634,10.941895 38.98004,13.060364 38.98004,13.060364 C38.347443,12.319458 37.65866,11.630737 36.918915,10.99884 C36.918915,10.99884 39.03662,6.5426025 39.03662,6.5426025 C39.03662,6.5426025 33.940613,3.6001587 33.940613,3.6001587 C33.940613,3.6001587 31.144165,7.658081 31.144165,7.658081 C30.234497,7.335388 29.292328,7.0838013 28.323822,6.906433 C28.323822,6.906433 27.930054,1.9904785 27.930054,1.9904785 C27.930054,1.9904785 22.04599,1.9904785 22.04599,1.9904785 C22.04599,1.9904785 21.652542,6.906433 21.652542,6.906433 C20.683807,7.0838013 19.741531,7.335388 18.832214,7.658081 C18.832214,7.658081 16.036255,3.600891 16.036255,3.600891 C16.036255,3.600891 10.93985,6.5426025 10.93985,6.5426025 C10.93985,6.5426025 13.057877,10.99884 13.057877,10.99884 C12.317459,11.630737 11.628281,12.319458 10.996338,13.060364 C10.996338,13.060364 6.5408783,10.942627 6.5408783,10.942627 C6.5408783,10.942627 3.5988922,16.038269 3.5988922,16.038269 C3.5988922,16.038269 7.655716,18.833862 7.655716,18.833862 C7.332611,19.74353 7.0818634,20.686157 6.904373,21.65503 C6.904373,21.65503 1.9883728,22.048035 1.9883728,22.048035 C1.9883728,22.048035 1.989212,27.932068 1.989212,27.932068 C1.989212,27.932068 6.904373,28.325928 6.904373,28.325928 C7.0818634,29.294312 7.332611,30.236511 7.655716,31.145508 C7.655716,31.145508 3.59964,33.942627 3.59964,33.942627 C3.59964,33.942627 6.541626,39.037476 6.541626,39.037476 C6.541626,39.037476 10.996338,36.920532 10.996338,36.920532 C11.628616,37.660645 12.3181305,38.35022 13.058716,38.982178 C13.058716,38.982178 10.9410095,43.437622 10.9410095,43.437622 C10.9410095,43.437622 16.036926,46.37921 16.036926,46.37921 C16.036926,46.37921 18.832626,42.323242 18.832626,42.323242 C19.741531,42.645508 20.68422,42.897034 21.652542,43.07483 C21.652542,43.07483 22.04599,47.99048 22.04599,47.99048 C22.04599,47.99048 27.930817,47.99048 27.930817,47.99048 C27.930817,47.99048 28.323822,43.07483 28.323822,43.07483 C29.292725,42.897034 30.234497,42.645508 31.144165,42.322388 C31.144165,42.322388 33.940613,46.37921 33.940613,46.37921 C33.940613,46.37921 39.03662,43.437622 39.03662,43.437622 C39.03662,43.437622 36.918915,38.981445 36.918915,38.981445 C37.65866,38.349487 38.348175,37.660645 38.98004,36.9198 C38.98004,36.9198 43.43634,39.037476 43.43634,39.037476 C43.43634,39.037476 46.378754,33.941895 46.378754,33.941895 C46.378754,33.941895 42.321472,31.145508 42.321472,31.145508 C42.644165,30.23584 42.895355,29.294312 43.073242,28.325928 C43.073242,28.325928 47.988434,27.932068 47.988434,27.932068 ZM24.988068,36.49048 C18.636536,36.49048 13.488388,31.341248 13.488388,24.990479 C13.488388,18.638489 18.636536,13.4904785 24.988068,13.4904785 C31.339996,13.4904785 36.488403,18.638489 36.488403,24.990479 C36.488403,31.341248 31.339996,36.49048 24.988068,36.49048 Z"/>
</svg>