<svg xmlns="http://www.w3.org/2000/svg"
 xmlns:xlink="http://www.w3.org/1999/xlink"
 width="52px" height="43px"  viewBox="0 0 52 43">
<path fill-rule="evenodd"  fill="#e8663c"
 d="M50.18976,10.146179 C50.18976,10.146179 42.457214,2.4137573 42.457214,2.4137573 C41.55841,1.5145874 40.100525,1.5145874 39.201477,2.4137573 C39.201477,2.4137573 21.079163,20.536133 21.079163,20.536133 C21.079163,20.536133 13.661987,13.11908 13.661987,13.11908 C12.762878,12.219971 11.305237,12.220093 10.40625,13.11908 C10.40625,13.11908 2.6738281,20.851562 2.6738281,20.851562 C1.7747803,21.750488 1.7747803,23.208252 2.6738281,24.107239 C2.6738281,24.107239 11.416199,32.84967 11.416199,32.84967 C11.496582,32.96747 11.588196,33.07831 11.69043,33.180542 C11.69043,33.180542 19.42279,40.913025 19.42279,40.913025 C19.854492,41.344788 20.440125,41.587402 21.05066,41.587402 C21.661255,41.587402 22.246826,41.344788 22.678528,40.913147 C22.678528,40.913147 50.18976,13.4019165 50.18976,13.4019165 C50.62146,12.970154 50.864014,12.384644 50.864014,11.774048 C50.864014,11.163452 50.62146,10.577881 50.18976,10.146179 Z"/>
</svg>